<svg xmlns="http://www.w3.org/2000/svg" width="92" height="72" viewBox="0 0 92 72" fill="none">
  <g opacity="0.3">
    <path d="M73.8033 24.9819C76.6129 24.6747 78.6414 22.1481 78.3342 19.3386C78.027 16.5291 75.5004 14.5005 72.6909 14.8077C69.8813 15.1149 67.8528 17.6415 68.16 20.4511C68.4672 23.2606 70.9938 25.2891 73.8033 24.9819Z" stroke="#EB996E" stroke-width="0.561983" stroke-linecap="round" stroke-linejoin="round"/>
    <path d="M77.0885 21.9713C78.2332 19.8516 77.4428 17.2053 75.323 16.0606C73.2033 14.9159 70.557 15.7063 69.4123 17.826C68.2676 19.9457 69.058 22.5921 71.1777 23.7368C73.2974 24.8815 75.9438 24.0911 77.0885 21.9713Z" stroke="#EB996E" stroke-width="0.561983" stroke-linecap="round" stroke-linejoin="round"/>
    <path d="M75.1048 20.7706C75.1048 19.3038 73.0242 19.2707 73.0242 18.6584C73.0242 18.3364 73.1935 18.2387 73.5402 18.2387C73.8388 18.2387 74.0906 18.3681 74.3782 18.6268L75.0662 17.8356C74.7486 17.4798 74.3199 17.2421 73.8498 17.1613V16.3357H72.943V17.1847C72.1656 17.3526 71.7046 17.9071 71.7046 18.7231C71.7046 20.1335 73.7865 20.223 73.7865 20.8683C73.7865 21.182 73.6242 21.3196 73.221 21.3196C72.8825 21.3196 72.544 21.1903 72.1078 20.8683L71.512 21.804C71.921 22.142 72.4198 22.3533 72.9472 22.4122V23.2227H73.8512V22.3558C74.6892 22.1563 75.1048 21.5481 75.1048 20.7706Z" stroke="#EB996E" stroke-width="0.561983" stroke-linecap="round" stroke-linejoin="round"/>
  </g>
  <g opacity="0.3">
    <path d="M76.2961 49.4167C77.585 49.4167 78.6299 48.3718 78.6299 47.0829C78.6299 45.7941 77.585 44.7492 76.2961 44.7492C75.0072 44.7492 73.9624 45.7941 73.9624 47.0829C73.9624 48.3718 75.0072 49.4167 76.2961 49.4167Z" stroke="#EB996E" stroke-width="0.561983" stroke-linecap="round" stroke-linejoin="round"/>
    <path d="M77.7025 48.4901C78.4796 47.7131 78.4796 46.4533 77.7025 45.6762C76.9255 44.8992 75.6657 44.8992 74.8886 45.6762C74.1116 46.4533 74.1116 47.7131 74.8886 48.4901C75.6657 49.2672 76.9255 49.2672 77.7025 48.4901Z" stroke="#EB996E" stroke-width="0.561983" stroke-linecap="round" stroke-linejoin="round"/>
    <path d="M77.1426 47.482C77.1426 46.8132 76.1932 46.794 76.1932 46.5188C76.1932 46.3715 76.2702 46.3275 76.4285 46.3275C76.5743 46.3348 76.7117 46.3979 76.8124 46.5036L77.1247 46.1431C76.9805 45.9823 76.7869 45.8738 76.5743 45.8349V45.4592H76.1615V45.8459C75.9943 45.8701 75.8422 45.9562 75.7354 46.0872C75.6286 46.2182 75.5749 46.3845 75.585 46.5532C75.585 47.1971 76.5344 47.2412 76.5344 47.5315C76.5344 47.676 76.4601 47.7379 76.2771 47.7379C76.0896 47.7277 75.9108 47.655 75.7693 47.5315L75.4941 47.9595C75.6809 48.1132 75.9086 48.2089 76.1491 48.2347V48.6048H76.5619V48.2044C76.7302 48.1757 76.8822 48.0864 76.9892 47.9533C77.0962 47.8202 77.1508 47.6525 77.1426 47.482Z" stroke="#EB996E" stroke-width="0.561983" stroke-linecap="round" stroke-linejoin="round"/>
  </g>
  <g opacity="0.3">
    <path d="M34.3718 9.99991C36.3694 9.6803 37.7297 7.80184 37.41 5.80424C37.0904 3.80664 35.212 2.44636 33.2144 2.76597C31.2168 3.08557 29.8565 4.96404 30.1761 6.96164C30.4957 8.95923 32.3742 10.3195 34.3718 9.99991Z" stroke="#EB996E" stroke-width="0.561983" stroke-linecap="round" stroke-linejoin="round"/>
    <path d="M36.4295 8.05834C37.3532 6.60226 36.9216 4.67308 35.4656 3.74939C34.0095 2.8257 32.0803 3.25727 31.1566 4.71334C30.2329 6.16941 30.6645 8.09859 32.1206 9.02229C33.5767 9.94598 35.5058 9.51441 36.4295 8.05834Z" stroke="#EB996E" stroke-width="0.561983" stroke-linecap="round" stroke-linejoin="round"/>
    <path d="M35.1203 7.01176C35.1203 5.96186 33.6314 5.93847 33.6314 5.49814C33.6314 5.26834 33.7525 5.19817 34.0016 5.19817C34.2297 5.20851 34.4449 5.30721 34.6015 5.47337L35.0914 4.90783C34.864 4.65267 34.5571 4.48196 34.2204 4.42347V3.83728H33.5736V4.44686C33.3157 4.48827 33.0822 4.62362 32.9181 4.82685C32.754 5.03008 32.6709 5.28683 32.6847 5.54768C32.6847 6.55768 34.1736 6.62097 34.1736 7.08332C34.1736 7.30761 34.0594 7.40668 33.7704 7.40668C33.5282 7.40668 33.2847 7.31449 32.9737 7.08332L32.5471 7.74931C32.8391 7.99226 33.1961 8.14395 33.5736 8.18551V8.76757H34.2204V8.14698C34.4823 8.09867 34.7179 7.95701 34.8834 7.74826C35.0488 7.53951 35.133 7.27784 35.1203 7.01176Z" stroke="#EB996E" stroke-width="0.561983" stroke-linecap="round" stroke-linejoin="round"/>
  </g>
  <g opacity="0.3">
    <path d="M5.15129 50.031C6.42352 49.8245 7.28746 48.6257 7.08094 47.3535C6.87443 46.0812 5.67567 45.2173 4.40344 45.4238C3.1312 45.6303 2.26727 46.8291 2.47378 48.1013C2.68029 49.3736 3.87905 50.2375 5.15129 50.031Z" stroke="#EB996E" stroke-width="0.561983" stroke-linecap="round" stroke-linejoin="round"/>
    <path d="M6.76462 47.7283C6.76462 47.3347 6.64792 46.95 6.42929 46.6228C6.21065 46.2956 5.8999 46.0406 5.53632 45.89C5.17275 45.7394 4.77268 45.7 4.38671 45.7768C4.00074 45.8535 3.6462 46.043 3.36794 46.3213C3.08967 46.5996 2.90016 46.9541 2.82339 47.3401C2.74661 47.726 2.78602 48.1261 2.93662 48.4897C3.08721 48.8533 3.34224 49.164 3.66945 49.3827C3.99666 49.6013 4.38136 49.718 4.77489 49.718C5.3026 49.718 5.80869 49.5084 6.18184 49.1352C6.55498 48.7621 6.76462 48.256 6.76462 47.7283V47.7283Z" stroke="#EB996E" stroke-width="0.561983" stroke-linecap="round" stroke-linejoin="round"/>
    <path d="M5.62102 48.1287C5.62102 47.4586 4.67294 47.4407 4.67294 47.1655C4.67294 47.0183 4.75 46.9742 4.90824 46.9742C5.05371 46.9814 5.19078 47.0445 5.29078 47.1504L5.60313 46.7898C5.45926 46.6287 5.26541 46.5207 5.05272 46.483V46.106H4.63992V46.494C4.47529 46.52 4.32616 46.6062 4.22143 46.7358C4.11669 46.8654 4.0638 47.0294 4.073 47.1958C4.073 47.8384 5.02245 47.8838 5.02245 48.1741C5.02245 48.3117 4.94952 48.3791 4.76513 48.3791C4.57777 48.3693 4.39907 48.2971 4.25738 48.1741L3.98218 48.6007C4.16936 48.7537 4.39684 48.8493 4.63716 48.8759V49.2447H5.04997V48.8511C5.21679 48.8209 5.36684 48.7308 5.47198 48.5978C5.57711 48.4648 5.63011 48.298 5.62102 48.1287V48.1287Z" stroke="#EB996E" stroke-width="0.561983" stroke-linecap="round" stroke-linejoin="round"/>
  </g>
  <g opacity="0.3">
    <path d="M63.2871 60.4876C64.5617 60.2959 65.4396 59.1074 65.248 57.8328C65.0563 56.5582 63.8678 55.6803 62.5932 55.872C61.3186 56.0636 60.4407 57.2522 60.6324 58.5267C60.824 59.8013 62.0126 60.6792 63.2871 60.4876Z" stroke="#EB996E" stroke-width="0.561983" stroke-linecap="round" stroke-linejoin="round"/>
    <path d="M64.9277 58.1833C64.9272 57.7899 64.81 57.4055 64.591 57.0786C64.3721 56.7518 64.0611 56.4972 63.6975 56.347C63.3339 56.1968 62.9339 56.1578 62.5481 56.2349C62.1623 56.312 61.808 56.5017 61.53 56.7801C61.2521 57.0585 61.0628 57.413 60.9863 57.7989C60.9097 58.1848 60.9493 58.5847 61.1 58.9482C61.2506 59.3116 61.5057 59.6222 61.8328 59.8407C62.16 60.0592 62.5446 60.1758 62.938 60.1758C63.1995 60.176 63.4586 60.1246 63.7003 60.0245C63.9419 59.9244 64.1615 59.7776 64.3463 59.5925C64.5311 59.4074 64.6776 59.1876 64.7774 58.9458C64.8772 58.704 64.9282 58.4449 64.9277 58.1833V58.1833Z" stroke="#EB996E" stroke-width="0.561983" stroke-linecap="round" stroke-linejoin="round"/>
    <path d="M63.7841 58.5823C63.7841 57.9136 62.836 57.8943 62.836 57.6191C62.836 57.4719 62.9131 57.4278 63.0713 57.4278C63.2168 57.435 63.3539 57.4981 63.4539 57.604L63.7662 57.2435C63.6225 57.0818 63.4287 56.9733 63.2158 56.9352V56.5596H62.803V56.9476C62.6386 56.9736 62.4897 57.0595 62.385 57.1889C62.2803 57.3183 62.2272 57.4818 62.2361 57.648C62.2361 58.292 63.1855 58.336 63.1855 58.6277C63.1855 58.7653 63.1126 58.8328 62.9282 58.8328C62.7409 58.8229 62.5622 58.7507 62.4205 58.6277L62.1453 59.0543C62.3324 59.2073 62.5599 59.3029 62.8003 59.3295V59.6983H63.2131V59.3034C63.3795 59.2729 63.5292 59.1829 63.6342 59.0503C63.7393 58.9176 63.7926 58.7513 63.7841 58.5823Z" stroke="#EB996E" stroke-width="0.561983" stroke-linecap="round" stroke-linejoin="round"/>
  </g>
  <g opacity="0.3">
    <path d="M16.782 23.5791C18.0709 23.5791 19.1157 22.5342 19.1157 21.2454C19.1157 19.9565 18.0709 18.9116 16.782 18.9116C15.4931 18.9116 14.4482 19.9565 14.4482 21.2454C14.4482 22.5342 15.4931 23.5791 16.782 23.5791Z" stroke="#EB996E" stroke-width="0.561983" stroke-linecap="round" stroke-linejoin="round"/>
    <path d="M18.653 21.9207C19.027 20.8874 18.4926 19.7465 17.4593 19.3725C16.4261 18.9985 15.2852 19.5329 14.9111 20.5662C14.5371 21.5994 15.0715 22.7403 16.1048 23.1143C17.1381 23.4884 18.2789 22.954 18.653 21.9207Z" stroke="#EB996E" stroke-width="0.561983" stroke-linecap="round" stroke-linejoin="round"/>
    <path d="M17.6297 21.6471C17.6297 20.977 16.6803 20.9591 16.6803 20.6839C16.6803 20.5367 16.7573 20.4927 16.9156 20.4927C17.0613 20.4997 17.1986 20.5634 17.2981 20.6702L17.6105 20.3096C17.4668 20.148 17.2729 20.0395 17.06 20.0014V19.6244H16.6472V20.0124C16.4827 20.0387 16.3338 20.125 16.2291 20.2545C16.1244 20.3841 16.0714 20.5479 16.0803 20.7142C16.0803 21.3582 17.0298 21.4022 17.0298 21.6926C17.0298 21.8302 16.9568 21.899 16.7725 21.899C16.585 21.8883 16.4064 21.8157 16.2647 21.6926L15.9895 22.1191C16.1767 22.2722 16.4042 22.3677 16.6445 22.3943V22.7645H17.0573V22.3682C17.224 22.338 17.374 22.2482 17.4793 22.1155C17.5847 21.9828 17.6381 21.8163 17.6297 21.6471V21.6471Z" stroke="#EB996E" stroke-width="0.561983" stroke-linecap="round" stroke-linejoin="round"/>
  </g>
  <g opacity="0.3">
    <path d="M15.336 54.61C18.1454 54.3018 20.1731 51.7745 19.8649 48.9651C19.5567 46.1557 17.0294 44.128 14.22 44.4362C11.4105 44.7444 9.38288 47.2717 9.69106 50.0811C9.99924 52.8905 12.5266 54.9182 15.336 54.61Z" stroke="#EB996E" stroke-width="0.561983" stroke-linecap="round" stroke-linejoin="round"/>
    <path d="M18.6925 51.4494C19.7584 49.2889 18.8711 46.6735 16.7107 45.6076C14.5502 44.5417 11.9348 45.429 10.8689 47.5895C9.80303 49.7499 10.6903 52.3653 12.8508 53.4312C15.0112 54.4971 17.6267 53.6098 18.6925 51.4494Z" stroke="#EB996E" stroke-width="0.561983" stroke-linecap="round" stroke-linejoin="round"/>
    <path d="M16.6374 50.3978C16.6374 48.9296 14.5568 48.8979 14.5568 48.2842C14.5568 47.9622 14.7261 47.8645 15.0728 47.8645C15.3714 47.8645 15.6233 47.9939 15.9122 48.2526L16.6002 47.4614C16.2817 47.1061 15.8526 46.8685 15.3825 46.7871V45.9615H14.4757V46.8119C13.6996 46.9797 13.2372 47.5343 13.2372 48.3489C13.2372 49.7607 15.3178 49.8488 15.3178 50.4941C15.3178 50.8092 15.1568 50.9454 14.7536 50.9454C14.4151 50.9454 14.0752 50.8161 13.6404 50.4941L13.0432 51.4298C13.4524 51.7676 13.9511 51.9789 14.4784 52.038V52.8485H15.3825V51.9816C16.2218 51.7821 16.6374 51.1739 16.6374 50.3978Z" stroke="#EB996E" stroke-width="0.561983" stroke-linecap="round" stroke-linejoin="round"/>
  </g>
  <path d="M11.8475 24.9069C11.8805 25.5633 11.3273 26.9283 11.3273 26.9297C11.3273 26.9311 10.5375 26.2926 10.4935 26.2417C9.97607 25.6995 9.29356 24.3496 9.69261 23.6121C9.76233 23.4914 9.85669 23.3867 9.96954 23.3048C10.0824 23.2229 10.2112 23.1657 10.3476 23.1369C10.484 23.1081 10.6249 23.1083 10.7613 23.1376C10.8976 23.1668 11.0262 23.2244 11.1388 23.3066C11.6273 23.6437 11.8186 24.3483 11.8475 24.9069Z" fill="#BC9434"/>
  <path d="M25.2389 37.9461L25.3242 37.997L25.3352 38.5901L24.9802 38.3713C24.6375 38.158 24.2756 37.9241 23.9055 37.6833C23.6194 37.9949 23.3153 38.2895 22.9946 38.5653C23.278 39.1322 23.3977 40.3542 23.4074 40.511C23.805 40.5014 24.1917 40.4876 24.5564 40.4697C24.8068 40.4574 25.0476 40.4436 25.2801 40.4285L25.0847 40.9458C24.9182 40.9458 24.7504 40.9582 24.5756 40.9624C24.1724 40.9734 23.7417 40.9789 23.2987 40.9789C23.2739 41.1371 23.062 42.4374 22.7221 42.9535C22.4139 43.4199 21.8965 43.9291 21.2993 43.9662C21.1615 43.9793 21.0225 43.9633 20.8912 43.9194C20.7599 43.8756 20.6392 43.8047 20.537 43.7114C20.4347 43.618 20.3531 43.5044 20.2974 43.3776C20.2417 43.2509 20.2132 43.1139 20.2136 42.9755C20.2453 42.1361 21.5195 41.3242 22.2405 41.1178C22.2832 41.1068 22.7593 41.0284 23.0592 40.9802C22.879 40.9802 22.7028 40.9802 22.5171 40.9802C22.1483 40.9802 21.7809 40.961 21.3846 40.9472L20.8067 40.9059C20.614 40.8963 20.4104 40.8619 20.2109 40.8399C19.7472 40.7807 19.2821 40.7023 18.8142 40.6046C18.8142 40.9266 18.7784 42.0714 18.539 42.5819C18.2996 43.0924 17.8661 43.6731 17.2868 43.7997C17.1515 43.8339 17.0105 43.8392 16.873 43.8153C16.7355 43.7914 16.6046 43.7388 16.4888 43.6609C16.373 43.583 16.2749 43.4816 16.201 43.3632C16.127 43.2449 16.0787 43.1123 16.0594 42.9741C15.9631 42.1402 17.0997 41.1412 17.7822 40.8316C17.8235 40.8124 18.3326 40.6459 18.6229 40.5564C18.3477 40.4973 18.0615 40.4408 17.7794 40.372C16.9648 40.1739 16.1475 39.9482 15.3301 39.7267L14.5829 39.5354C14.5829 39.651 14.5761 41.0133 14.3077 41.5843C14.0738 42.0921 13.6335 42.6755 13.0556 42.8021C12.9202 42.8365 12.7792 42.842 12.6416 42.8182C12.504 42.7944 12.373 42.7418 12.2572 42.6638C12.1413 42.5859 12.0432 42.4844 11.9693 42.366C11.8954 42.2475 11.8473 42.1148 11.8281 41.9765C11.7318 41.1426 12.8684 40.1436 13.5495 39.834C13.6018 39.8106 14.3421 39.5712 14.5334 39.5203C13.983 39.3744 13.4326 39.2354 12.8822 39.1212C12.142 38.9625 11.3923 38.8517 10.6379 38.7896C10.6379 38.8433 10.6379 40.2647 10.3627 40.8536C10.1274 41.3614 9.68843 41.9435 9.1105 42.0701C8.97509 42.1047 8.83389 42.1104 8.69615 42.0866C8.55841 42.0629 8.42724 42.0104 8.31122 41.9324C8.19521 41.8545 8.09697 41.7529 8.02295 41.6343C7.94893 41.5158 7.9008 41.3829 7.88171 41.2444C7.78676 40.4119 8.92198 39.4116 9.60449 39.102C9.65816 39.0786 10.4549 38.8268 10.6021 38.7841C10.5581 38.7841 10.514 38.7731 10.4645 38.7703C9.7064 38.7292 8.94615 38.7555 8.19269 38.8488C7.77988 38.8956 7.38084 38.963 6.99693 39.0373C7.02445 39.3029 7.13453 40.5138 6.95014 41.0683C6.77263 41.5995 6.39973 42.2255 5.83832 42.4154C5.70909 42.4618 5.57165 42.4808 5.4347 42.4712C5.29775 42.4617 5.16427 42.4239 5.04269 42.3601C4.92112 42.2964 4.8141 42.2081 4.72841 42.1008C4.64271 41.9936 4.58021 41.8697 4.54486 41.7371C4.35772 40.9114 5.37047 39.801 6.02133 39.4185C6.05573 39.3978 6.43413 39.2258 6.70934 39.1033C6.53596 39.1405 6.35845 39.1749 6.19333 39.2121C5.5755 39.3497 5.01683 39.5203 4.52421 39.673C4.24901 39.7625 3.99445 39.8478 3.76052 39.9303C3.65182 40.2055 3.19773 41.3064 2.7863 41.7013C2.37487 42.0962 1.76391 42.4746 1.1791 42.3893C0.594294 42.304 0.177359 41.7646 0.330098 41.1798C0.540629 40.3679 1.96068 39.845 2.70924 39.8037C2.77391 39.8037 3.79079 39.8588 3.78529 39.8725V39.8891C4.00958 39.8051 4.24901 39.7171 4.51458 39.6276C5.00445 39.4639 5.56036 39.2836 6.17819 39.1281C6.8419 38.951 7.51549 38.8131 8.19544 38.7153C8.95609 38.6043 9.7251 38.561 10.4934 38.586H10.5209C10.2884 38.5034 9.6499 38.2502 9.60311 38.2254C8.94262 37.8718 7.87345 36.8026 8.02206 35.977C8.05059 35.8406 8.10753 35.7117 8.18919 35.5988C8.27084 35.4858 8.37538 35.3914 8.49598 35.3215C8.61658 35.2517 8.75055 35.208 8.88915 35.1934C9.02775 35.1788 9.16787 35.1936 9.30039 35.2367C9.87006 35.4005 10.2636 36.0087 10.4714 36.5316C10.6984 37.1205 10.6172 38.4855 10.609 38.5956C11.3902 38.6407 12.1675 38.7377 12.9358 38.8859C13.383 38.9699 13.833 39.0689 14.2816 39.1735C14.0834 39.0951 13.9073 39.0235 13.8839 39.0112C13.2221 38.6575 12.1543 37.5883 12.3029 36.7627C12.3314 36.6263 12.3884 36.4974 12.47 36.3844C12.5516 36.2714 12.6561 36.1769 12.7767 36.1069C12.8973 36.037 13.0312 35.9932 13.1698 35.9784C13.3084 35.9636 13.4486 35.9781 13.5812 36.0211C14.1509 36.1848 14.5513 36.7944 14.7522 37.3173C14.9531 37.8402 14.9104 39.0125 14.8898 39.3208C15.0618 39.362 15.2338 39.4019 15.4044 39.4446C16.23 39.6483 17.0557 39.8574 17.8593 40.0335C18.1441 40.0968 18.4289 40.1491 18.7124 40.2014C18.5363 40.1312 18.389 40.0721 18.3684 40.0638C17.7065 39.7115 16.6373 38.641 16.7873 37.8154C16.8159 37.679 16.8728 37.5501 16.9545 37.4372C17.0361 37.3242 17.1406 37.2297 17.2612 37.1599C17.3818 37.0901 17.5158 37.0464 17.6544 37.0318C17.793 37.0172 17.9331 37.0319 18.0657 37.0751C18.634 37.2388 19.0357 37.8484 19.2366 38.3699C19.4375 38.8914 19.399 39.9524 19.3743 40.3184C19.666 40.3638 19.9591 40.4092 20.2439 40.4395C20.4393 40.456 20.6251 40.4863 20.8218 40.4918L21.4011 40.5207C21.7699 40.5207 22.1497 40.5317 22.5102 40.5275C22.7593 40.5275 22.9987 40.5206 23.2381 40.5151C22.9533 40.456 22.3974 40.328 22.352 40.3115C21.739 40.0696 21.1981 39.675 20.7805 39.1653C20.7114 39.1412 20.6446 39.1108 20.581 39.0744C20.4577 39.0093 20.3496 38.9189 20.2636 38.8092C20.1776 38.6994 20.1157 38.5727 20.0819 38.4374C20.0482 38.3022 20.0433 38.1613 20.0676 38.024C20.092 37.8867 20.145 37.7561 20.2233 37.6406C20.7117 36.9595 22.224 36.9815 22.9368 37.2113C22.9794 37.2251 23.4198 37.4218 23.695 37.5512C23.545 37.4507 23.3977 37.3544 23.2436 37.2485C22.9381 37.0421 22.6396 36.8274 22.3176 36.5976L21.8676 36.233C21.7121 36.1188 21.5621 35.9784 21.4066 35.8491C21.0544 35.545 20.7104 35.2175 20.3719 34.8858C20.1916 35.1528 19.5339 36.0912 19.055 36.3871C18.5762 36.6829 17.8923 36.9251 17.3405 36.7118C16.7887 36.4985 16.4942 35.8862 16.7681 35.3496C17.1478 34.601 18.6477 34.3946 19.3825 34.5116C19.4293 34.5198 19.9494 34.6643 20.2343 34.7482C20.0334 34.5446 19.8311 34.3423 19.6329 34.129C19.0633 33.5153 18.5046 32.8755 17.9459 32.2397C17.7739 32.0457 17.6006 31.8531 17.4286 31.6604C17.3653 31.7568 16.6029 32.8892 16.0718 33.2208C15.5971 33.5153 14.9091 33.7575 14.3573 33.5442C14.2256 33.4985 14.1051 33.4255 14.0035 33.3302C13.9019 33.2348 13.8215 33.1191 13.7675 32.9906C13.7135 32.8622 13.6871 32.7238 13.6901 32.5845C13.6931 32.4451 13.7254 32.308 13.7848 32.182C14.166 31.4348 15.6645 31.227 16.3993 31.3453C16.4557 31.355 17.2056 31.5627 17.3928 31.6205C17.013 31.1953 16.6305 30.7757 16.2369 30.3821C15.7072 29.8419 15.1432 29.3363 14.5485 28.8685C14.5196 28.9139 13.7339 30.0987 13.1863 30.4385C12.7102 30.733 12.0222 30.9766 11.4704 30.7633C11.3387 30.7174 11.2181 30.6443 11.1165 30.5488C11.0149 30.4533 10.9346 30.3374 10.8807 30.2088C10.8269 30.0802 10.8007 29.9417 10.8039 29.8022C10.8071 29.6628 10.8396 29.5257 10.8993 29.3996C11.2791 28.6525 12.7776 28.446 13.5138 28.563C13.5729 28.5726 14.3793 28.7983 14.5224 28.8492C14.488 28.8217 14.455 28.7901 14.4192 28.7639C13.8095 28.3119 13.1612 27.9146 12.4818 27.5764C12.1089 27.3865 11.7415 27.2241 11.3809 27.0742C11.2571 27.3108 10.6792 28.3814 10.2209 28.7419C9.76273 29.1024 9.12013 29.4038 8.55046 29.2524C8.41463 29.2212 8.28689 29.1618 8.17553 29.078C8.06417 28.9942 7.97168 28.888 7.90406 28.7661C7.83645 28.6443 7.79523 28.5095 7.78308 28.3707C7.77094 28.2319 7.78813 28.0921 7.83355 27.9603C8.12802 27.176 9.59486 26.8058 10.3434 26.8416C10.3847 26.8416 10.7961 26.909 11.0947 26.9613C10.931 26.8966 10.7631 26.8237 10.6049 26.7673C10.0104 26.5444 9.45313 26.3765 8.95363 26.2307C8.67843 26.1508 8.41423 26.0848 8.17343 26.0243C7.93125 26.1921 6.94739 26.8581 6.3846 26.9627C5.8218 27.0673 5.1049 27.0453 4.66732 26.6476C4.22975 26.2499 4.17608 25.5743 4.62604 25.1711C5.24938 24.6097 6.72172 24.9578 7.36983 25.3335C7.42487 25.3665 8.24223 25.9761 8.22984 25.9857L8.21471 25.9954C8.44726 26.049 8.69631 26.1082 8.96739 26.1784C9.46689 26.316 10.0283 26.4687 10.6296 26.6806C11.2799 26.9009 11.9167 27.1591 12.5368 27.4539C13.2323 27.7816 13.8977 28.1697 14.5251 28.6139L14.5458 28.6318C14.3986 28.435 14.0064 27.8709 13.9802 27.8241C13.6239 27.165 13.3225 25.683 13.9032 25.072C14.0022 24.9742 14.1208 24.8982 14.2511 24.8492C14.3815 24.8002 14.5207 24.7791 14.6597 24.7874C14.7987 24.7957 14.9344 24.8332 15.058 24.8974C15.1815 24.9616 15.2902 25.0511 15.3769 25.1601C15.7622 25.6101 15.7594 26.3394 15.6397 26.8856C15.5021 27.5021 14.6765 28.596 14.6173 28.6827C15.2504 29.1524 15.8512 29.6641 16.4158 30.2142C16.7433 30.5321 17.0639 30.861 17.379 31.1953C17.2579 31.022 17.1492 30.8651 17.1368 30.8417C16.7804 30.1826 16.4791 28.6992 17.0598 28.0897C17.1588 27.9918 17.2774 27.9159 17.4077 27.8668C17.5381 27.8178 17.6773 27.7967 17.8163 27.805C17.9553 27.8133 18.091 27.8508 18.2146 27.915C18.3381 27.9792 18.4468 28.0687 18.5335 28.1777C18.9188 28.6277 18.916 29.357 18.7963 29.9033C18.6766 30.4495 17.9927 31.4045 17.8083 31.6536C17.9294 31.7829 18.0505 31.9109 18.1702 32.0402C18.744 32.6649 19.3137 33.2897 19.8916 33.8855C20.0953 34.096 20.3044 34.2983 20.5108 34.4964C20.4035 34.3409 20.3141 34.2102 20.3017 34.1882C19.9453 33.5291 19.6439 32.0471 20.2246 31.4361C20.6374 30.9999 21.3255 31.0839 21.6984 31.5242C22.0713 31.9645 22.0809 32.7048 21.9612 33.2511C21.8415 33.7974 21.2236 34.6588 21.0062 34.9546C21.225 35.1542 21.4438 35.3537 21.6653 35.5367C21.8181 35.6578 21.9584 35.7858 22.1194 35.8986L22.5859 36.2412C22.8914 36.449 23.2037 36.665 23.5064 36.8591C23.7156 36.9967 23.9193 37.1232 24.1215 37.2512C23.9165 37.0448 23.523 36.6306 23.4941 36.5921C23.0414 35.9949 22.5198 34.5762 23.0014 33.8882C23.0846 33.7764 23.1903 33.6833 23.3117 33.615C23.4331 33.5467 23.5676 33.5047 23.7063 33.4917C23.845 33.4787 23.9849 33.4951 24.1169 33.5397C24.2489 33.5843 24.37 33.6562 24.4724 33.7506C24.9196 34.1373 25.0228 34.8583 24.9925 35.417C24.9526 36.0321 24.3376 37.1934 24.2591 37.3434C24.5949 37.5581 24.9237 37.7604 25.2389 37.9461Z" fill="#BC9434"/>
  <path d="M6.87991 38.9507C6.87991 38.9658 5.86991 38.8543 5.80661 38.8406C5.07595 38.6741 3.76184 37.9241 3.68754 37.0889C3.67927 36.9497 3.70038 36.8104 3.7495 36.6799C3.79862 36.5495 3.87464 36.4308 3.97263 36.3317C4.07061 36.2325 4.18837 36.1551 4.31824 36.1044C4.44811 36.0538 4.58719 36.031 4.72644 36.0376C5.31813 36.0445 5.86578 36.5261 6.1974 36.9774C6.58682 37.5058 6.87991 38.9493 6.87991 38.9507Z" fill="#BC9434"/>
  <path d="M79.977 24.9069C79.944 25.5633 80.4958 26.9283 80.4958 26.9297C80.4958 26.9311 81.2856 26.2926 81.331 26.2417C81.8484 25.6995 82.5309 24.3496 82.1319 23.6121C82.0621 23.4914 81.9678 23.3867 81.8549 23.3048C81.7421 23.2229 81.6133 23.1657 81.4769 23.1369C81.3405 23.1081 81.1995 23.1083 81.0632 23.1376C80.9269 23.1668 80.7983 23.2244 80.6857 23.3066C80.1958 23.6437 80.0045 24.3483 79.977 24.9069Z" fill="#BC9434"/>
  <path d="M66.5856 37.9462L66.4989 37.9971L66.4893 38.5901L66.8443 38.3714C67.1869 38.1581 67.5488 37.9241 67.9176 37.6833C68.2036 37.995 68.5078 38.2895 68.8285 38.5654C68.545 39.1323 68.4267 40.3542 68.4157 40.5111C68.018 40.5014 67.6327 40.4877 67.2681 40.4698C67.0163 40.4574 66.7755 40.4436 66.5443 40.4285L66.7411 40.95C66.9062 40.95 67.0741 40.9624 67.2488 40.9665C67.652 40.9775 68.0841 40.983 68.5271 40.983C68.5519 41.1413 68.7638 42.4416 69.1037 42.9576C69.4119 43.4241 69.9293 43.9332 70.5251 43.9704C70.6638 43.9841 70.8039 43.9685 70.9362 43.9244C71.0684 43.8804 71.1899 43.809 71.2928 43.7149C71.3956 43.6208 71.4774 43.506 71.5329 43.3782C71.5884 43.2503 71.6164 43.1122 71.6149 42.9728C71.5833 42.1334 70.3091 41.3215 69.5881 41.1151C69.5454 41.1041 69.0693 41.0257 68.7624 40.9775C68.9441 40.9775 69.1188 40.9775 69.3129 40.9775C69.6816 40.9775 70.049 40.9583 70.4439 40.9445L71.0219 40.9032C71.2159 40.8936 71.4182 40.8592 71.6191 40.8372C72.0814 40.778 72.5479 40.6996 73.0157 40.6019C73.0157 40.9239 73.0501 42.0687 73.2909 42.5792C73.5317 43.0897 73.9652 43.6704 74.5431 43.797C74.6785 43.8312 74.8196 43.8365 74.9571 43.8126C75.0947 43.7887 75.2257 43.7361 75.3416 43.6582C75.4575 43.5804 75.5557 43.4789 75.6299 43.3606C75.704 43.2423 75.7524 43.1097 75.7719 42.9714C75.8668 42.1375 74.7316 41.1385 74.0491 40.8289C74.0065 40.8097 73.4987 40.6432 73.2084 40.5537C73.4836 40.4946 73.7684 40.4381 74.0519 40.3693C74.8651 40.1712 75.6838 39.9455 76.5012 39.724L77.236 39.5355C77.236 39.6511 77.2429 41.0133 77.5112 41.5844C77.7451 42.0921 78.1841 42.6755 78.762 42.8021C79.3399 42.9287 79.922 42.5806 79.9908 41.9765C80.0857 41.1427 78.9505 40.1437 78.268 39.8341C78.2171 39.8107 77.4768 39.5712 77.2855 39.5203C77.8359 39.3745 78.3863 39.2355 78.9368 39.1213C79.6765 38.9625 80.4257 38.8517 81.1797 38.7897C81.1797 38.8433 81.1797 40.2648 81.4549 40.8537C81.6888 41.3614 82.1291 41.9435 82.7071 42.0701C82.8424 42.1045 82.9834 42.11 83.121 42.0862C83.2586 42.0624 83.3896 42.0098 83.5054 41.9318C83.6213 41.8539 83.7194 41.7524 83.7933 41.634C83.8673 41.5155 83.9153 41.3828 83.9345 41.2445C84.0308 40.412 82.8956 39.4116 82.2131 39.102C82.1594 39.0786 81.3627 38.8268 81.2141 38.7842C81.2581 38.7842 81.3035 38.7732 81.3517 38.7704C82.1093 38.7293 82.8691 38.7556 83.6221 38.8488C84.0349 38.8956 84.4353 38.963 84.8179 39.0373C84.7917 39.3029 84.6803 40.5138 84.866 41.0684C85.0435 41.5995 85.4164 42.2256 85.9765 42.4155C86.1064 42.4634 86.2448 42.4837 86.383 42.4749C86.5211 42.4662 86.656 42.4287 86.7788 42.3648C86.9016 42.301 87.0097 42.2121 87.0962 42.104C87.1827 41.9959 87.2456 41.8709 87.281 41.7371C87.4681 40.9115 86.4553 39.801 85.8045 39.4185C85.7701 39.3979 85.3917 39.2259 85.1165 39.1034C85.2885 39.1405 85.4674 39.1749 85.6325 39.2121C86.2503 39.3497 86.8076 39.5203 87.3002 39.6731C87.5754 39.7625 87.8314 39.8478 88.0653 39.9304C88.174 40.2056 88.6281 41.3064 89.0395 41.7013C89.4509 42.0962 90.0605 42.4746 90.6453 42.3893C90.7837 42.3726 90.9171 42.327 91.0367 42.2554C91.1563 42.1838 91.2596 42.0879 91.3398 41.9739C91.4199 41.8598 91.4752 41.7302 91.5021 41.5934C91.529 41.4566 91.5268 41.3157 91.4957 41.1798C91.2838 40.368 89.8638 39.8451 89.1166 39.8038C89.0519 39.8038 88.035 39.8588 88.0405 39.8726V39.8891C87.8176 39.8052 87.5768 39.7171 87.3126 39.6277C86.8214 39.4639 86.2668 39.2837 85.649 39.1282C84.9853 38.9511 84.3117 38.8133 83.6317 38.7154C82.8711 38.6043 82.1021 38.561 81.3338 38.586H81.3063C81.5374 38.5035 82.1773 38.2503 82.2241 38.2255C82.8846 37.8719 83.9537 36.8027 83.8037 35.9771C83.7752 35.8407 83.7183 35.7118 83.6366 35.5988C83.555 35.4859 83.4504 35.3914 83.3298 35.3216C83.2092 35.2517 83.0753 35.2081 82.9367 35.1935C82.7981 35.1789 82.6579 35.1936 82.5254 35.2368C81.9571 35.4005 81.5553 36.0087 81.3544 36.5316C81.1274 37.1205 81.2168 38.4856 81.2168 38.5956C80.4347 38.6401 79.6565 38.7366 78.8872 38.8846C78.4386 38.9685 77.99 39.0676 77.5415 39.1722C77.7396 39.0938 77.9157 39.0222 77.9391 39.0098C78.5996 38.6562 79.6688 37.587 79.5202 36.7614C79.4916 36.625 79.4347 36.4961 79.353 36.3831C79.2714 36.2701 79.1669 36.1756 79.0463 36.1056C78.9258 36.0357 78.7918 35.9919 78.6532 35.9771C78.5146 35.9623 78.3745 35.9768 78.2419 36.0197C77.6722 36.1835 77.2704 36.7931 77.0695 37.3159C76.8686 37.8388 76.9126 39.0112 76.9319 39.3194L76.4159 39.4433C75.5903 39.6469 74.7729 39.8561 73.9624 40.0322C73.6762 40.0955 73.3928 40.1478 73.1093 40.2001C73.2841 40.1299 73.4313 40.0707 73.4533 40.0625C74.1138 39.7102 75.183 38.6397 75.0344 37.8141C75.0058 37.6776 74.9489 37.5488 74.8672 37.4358C74.7856 37.3229 74.681 37.2284 74.5604 37.1586C74.4398 37.0887 74.3059 37.0451 74.1673 37.0305C74.0287 37.0159 73.8886 37.0306 73.756 37.0738C73.1864 37.2375 72.7859 37.8471 72.585 38.3686C72.3841 38.8901 72.4199 39.9483 72.4406 40.3129C72.1488 40.3583 71.8557 40.4037 71.5709 40.434C71.3755 40.4505 71.1884 40.4808 70.9916 40.4863L70.4137 40.5152C70.0449 40.5152 69.6637 40.5262 69.3046 40.5221C69.0542 40.5221 68.8161 40.5152 68.5767 40.5097C68.8615 40.4505 69.4174 40.3226 69.4615 40.306C70.0747 40.0646 70.6157 39.67 71.0329 39.1598C71.1025 39.1358 71.1697 39.1054 71.2338 39.069C71.3569 39.0037 71.4649 38.9132 71.5508 38.8034C71.6367 38.6937 71.6985 38.5671 71.7322 38.4318C71.766 38.2966 71.7709 38.1558 71.7466 38.0185C71.7224 37.8813 71.6696 37.7507 71.5915 37.6352C71.1031 36.954 69.5894 36.9761 68.8767 37.2059C68.8354 37.2196 68.395 37.4164 68.1185 37.5457C68.2698 37.4453 68.4171 37.349 68.5698 37.243C68.8753 37.0366 69.1739 36.8219 69.4959 36.5922L69.9555 36.2385C70.1109 36.1243 70.2609 35.984 70.4164 35.8546C70.7701 35.5505 71.1127 35.223 71.4512 34.8914C71.6328 35.1583 72.2906 36.0968 72.7681 36.3926C73.2455 36.6885 73.9335 36.921 74.4839 36.7132C75.0344 36.5055 75.3288 35.8876 75.055 35.351C74.6752 34.6024 73.1767 34.396 72.4406 34.513C72.3951 34.5212 71.8736 34.6657 71.5888 34.7497C71.7911 34.546 71.9933 34.3437 72.1901 34.1304C72.7612 33.5167 73.3185 32.8769 73.8785 32.2412C74.0491 32.0472 74.2225 31.8545 74.3945 31.6619C74.4592 31.7582 75.2201 32.8907 75.7513 33.2223C76.2274 33.5167 76.9154 33.7589 77.4672 33.5456C77.5988 33.4999 77.7193 33.427 77.8209 33.3316C77.9225 33.2362 78.0029 33.1205 78.0567 32.992C78.1106 32.8634 78.1368 32.725 78.1336 32.5857C78.1304 32.4464 78.0979 32.3093 78.0382 32.1834C77.6584 31.4362 76.1599 31.2284 75.4238 31.3468C75.3687 31.3564 74.6188 31.5642 74.4303 31.622C74.8101 31.1968 75.194 30.7771 75.5875 30.3835C76.1164 29.843 76.68 29.3374 77.2745 28.8699C77.3048 28.9153 78.0905 30.1001 78.6382 30.44C79.1143 30.7344 79.8009 30.978 80.3541 30.7647C80.4857 30.7188 80.6063 30.6458 80.7079 30.5502C80.8095 30.4547 80.8898 30.3389 80.9437 30.2102C80.9976 30.0816 81.0237 29.9431 81.0205 29.8037C81.0173 29.6643 80.9848 29.5271 80.9251 29.4011C80.5453 28.6539 79.0468 28.4475 78.3107 28.5644C78.2529 28.5741 77.4465 28.7997 77.3034 28.8507C77.3378 28.8231 77.3708 28.7915 77.4052 28.7653C78.0154 28.3134 78.6642 27.916 79.3441 27.5778C79.717 27.3879 80.0844 27.2256 80.4449 27.0756C80.5687 27.3123 81.1453 28.3828 81.6049 28.7433C82.0645 29.1038 82.7057 29.4052 83.274 29.2538C83.4099 29.2228 83.5378 29.1635 83.6493 29.0798C83.7609 28.9961 83.8535 28.8898 83.9213 28.768C83.989 28.6461 84.0303 28.5113 84.0426 28.3724C84.0548 28.2335 84.0377 28.0936 83.9923 27.9617C83.6964 27.1774 82.2296 26.8073 81.481 26.843C81.4411 26.843 81.0297 26.9105 80.7311 26.9627C80.8948 26.8981 81.0627 26.8251 81.221 26.7687C81.814 26.5458 82.3713 26.3779 82.8722 26.2321C83.1474 26.1523 83.4116 26.0862 83.651 26.0257C83.8932 26.1936 84.877 26.8595 85.4398 26.9641C86.0026 27.0687 86.7182 27.0467 87.1571 26.649C87.5961 26.2513 87.6484 25.5757 87.1984 25.1725C86.5737 24.6111 85.1013 24.9593 84.4546 25.3349C84.3982 25.3679 83.5822 25.9775 83.5946 25.9871L83.6097 25.9968C83.3758 26.0504 83.1267 26.1096 82.857 26.1798C82.3575 26.3174 81.7948 26.4701 81.1934 26.682C80.5436 26.9024 79.9072 27.1606 79.2876 27.4554C78.5918 27.7824 77.9264 28.1706 77.2993 28.6154L77.2773 28.6332C77.4245 28.4365 77.818 27.8723 77.8428 27.8255C78.1992 27.1664 78.5006 25.6844 77.9212 25.0735C77.8221 24.9756 77.7034 24.8996 77.573 24.8506C77.4425 24.8015 77.3032 24.7804 77.1641 24.7888C77.025 24.7971 76.8891 24.8345 76.7655 24.8988C76.6418 24.963 76.533 25.0525 76.4462 25.1615C76.0622 25.6115 76.0636 26.3408 76.1847 26.8871C76.3223 27.5035 77.1479 28.5975 77.2071 28.6842C76.5804 29.1528 75.9855 29.6626 75.4265 30.2102C75.099 30.528 74.7798 30.8569 74.4633 31.1913C74.5844 31.0179 74.6917 30.861 74.7055 30.8376C75.0619 30.1785 75.3618 28.6952 74.7825 28.0856C74.6834 27.9877 74.5647 27.9117 74.4342 27.8627C74.3038 27.8136 74.1645 27.7926 74.0254 27.8009C73.8862 27.8092 73.7504 27.8467 73.6267 27.9109C73.5031 27.9751 73.3943 28.0646 73.3074 28.1736C72.9235 28.6236 72.9249 29.3529 73.046 29.8992C73.1671 30.4455 73.8496 31.4004 74.0326 31.6495L73.6583 32.0444C73.0845 32.6691 72.5135 33.2938 71.9355 33.8896C71.7333 34.1002 71.5227 34.3025 71.3163 34.5006C71.425 34.3451 71.5145 34.2144 71.5255 34.1924C71.8819 33.5333 72.1832 32.0513 71.6039 31.4403C71.5048 31.3424 71.3861 31.2665 71.2556 31.2174C71.1252 31.1684 70.9859 31.1473 70.8468 31.1556C70.7076 31.1639 70.5718 31.2014 70.4481 31.2656C70.3245 31.3298 70.2157 31.4194 70.1288 31.5284C69.7449 31.9783 69.7463 32.709 69.8674 33.2553C69.9885 33.8016 70.6049 34.663 70.821 34.9588C70.6022 35.1583 70.3848 35.3579 70.1632 35.5409C70.0091 35.662 69.8701 35.7899 69.7091 35.9028L69.2413 36.2454C68.9372 36.4532 68.6235 36.6692 68.3207 36.8632C68.1116 37.0008 67.9079 37.1274 67.707 37.2554C67.9121 37.049 68.3056 36.6348 68.3345 36.5963C68.7858 35.9991 69.3087 34.5804 68.8271 33.8924C68.744 33.7806 68.6383 33.6875 68.5169 33.6192C68.3954 33.5509 68.261 33.5089 68.1223 33.4959C67.9836 33.4829 67.8437 33.4992 67.7117 33.5439C67.5797 33.5885 67.4586 33.6603 67.3562 33.7548C66.9076 34.1415 66.8057 34.8625 66.8346 35.4212C66.8759 36.0362 67.491 37.1976 67.5681 37.3476C67.2296 37.5581 66.8993 37.7604 66.5856 37.9462Z" fill="#BC9434"/>
  <path d="M84.9417 38.9507C84.9417 38.9658 85.9516 38.8543 86.0149 38.8406C86.7442 38.6741 88.0583 37.9241 88.1326 37.0889C88.1863 36.4876 87.6744 36.0307 87.0951 36.0376C86.5158 36.0445 85.9558 36.5261 85.6242 36.9774C85.2375 37.5058 84.9417 38.9493 84.9417 38.9507Z" fill="#BC9434"/>
  <path d="M27.5047 13.3473L25.1624 15.1813L28.005 18.8119L30.3474 16.9779L27.5047 13.3473Z" fill="#BC9434" stroke="#BC9434" stroke-width="0.561983" stroke-linejoin="round"/>
  <path d="M27.3174 11.4182L23.3347 14.5365L25.352 17.1129L29.3347 13.9946L27.3174 11.4182Z" fill="#BC9434" stroke="#BC9434" stroke-width="0.561983" stroke-linejoin="round"/>
  <path d="M24.1943 13.9855L25.6736 15.8748" stroke="#BC9434" stroke-width="0.561983" stroke-linejoin="round"/>
  <path d="M25.543 12.9301L27.0222 14.818" stroke="#BC9434" stroke-width="0.561983" stroke-linejoin="round"/>
  <path d="M25.1755 13.9428L26.6548 15.8307" stroke="#BC9434" stroke-width="0.561983" stroke-linejoin="round"/>
  <path d="M57.8939 16.9805L60.2363 18.8145L63.079 15.1839L60.7366 13.3499L57.8939 16.9805Z" fill="#BC9434" stroke="#BC9434" stroke-width="0.561983" stroke-linejoin="round"/>
  <path d="M58.9091 13.9939L62.8918 17.1122L64.9091 14.5358L60.9264 11.4175L58.9091 13.9939Z" fill="#BC9434" stroke="#BC9434" stroke-width="0.561983" stroke-linejoin="round"/>
  <path d="M64.0508 13.9855L62.5715 15.8748" stroke="#BC9434" stroke-width="0.561983" stroke-linejoin="round"/>
  <path d="M62.7024 12.9301L61.2231 14.818" stroke="#BC9434" stroke-width="0.561983" stroke-linejoin="round"/>
  <path d="M63.0698 13.9428L61.5906 15.8307" stroke="#BC9434" stroke-width="0.561983" stroke-linejoin="round"/>
  <path d="M46.3553 6.96912H41.531V11.8003H46.3553V6.96912Z" fill="#BC9434" stroke="#BC9434" stroke-width="0.561983" stroke-linejoin="round"/>
  <path d="M47.4341 4.19781H40.4521V9.02903H47.4341V4.19781Z" fill="#BC9434" stroke="#BC9434" stroke-width="0.561983" stroke-linejoin="round"/>
  <path d="M41.0796 4.18127V8.20752" stroke="#BC9434" stroke-width="0.561983" stroke-linejoin="round"/>
  <path d="M41.6548 8.38777V6.23016" stroke="#BC9434" stroke-width="0.561983" stroke-linejoin="round"/>
  <path d="M42.2656 4.28998V7.34475" stroke="#BC9434" stroke-width="0.561983" stroke-linejoin="round"/>
  <path d="M42.8767 5.76373V8.56807" stroke="#BC9434" stroke-width="0.561983" stroke-linejoin="round"/>
  <path d="M43.8123 4.32581V7.48928" stroke="#BC9434" stroke-width="0.561983" stroke-linejoin="round"/>
  <path d="M61.7878 54.0373C71.6437 44.1814 71.6437 28.2018 61.7878 18.3459C51.9319 8.48998 35.9523 8.48998 26.0964 18.3459C16.2405 28.2018 16.2405 44.1814 26.0964 54.0373C35.9523 63.8932 51.9319 63.8932 61.7878 54.0373Z" fill="#BC9434" stroke="#BC9434" stroke-width="0.561983" stroke-linejoin="round"/>
  <path d="M59.6958 51.9453C68.3964 43.2448 68.3964 29.1384 59.6958 20.4378C50.9953 11.7373 36.8889 11.7373 28.1883 20.4378C19.4878 29.1384 19.4878 43.2448 28.1883 51.9454C36.8889 60.6459 50.9953 60.6459 59.6958 51.9453Z" fill="white" stroke="#BC9434" stroke-width="0.561983" stroke-linejoin="round"/>
  <path d="M58.4611 50.7106C66.4798 42.692 66.4798 29.6912 58.4611 21.6726C50.4425 13.6539 37.4417 13.6539 29.4231 21.6726C21.4044 29.6912 21.4044 42.692 29.4231 50.7106C37.4417 58.7293 50.4425 58.7293 58.4611 50.7106Z" fill="white" stroke="#BC9434" stroke-width="0.561983" stroke-linejoin="round"/>
  <path d="M43.9431 15.6587V18.4424" stroke="#BC9434" stroke-width="0.561983" stroke-linejoin="round"/>
  <path d="M43.9431 53.9204V56.7041" stroke="#BC9434" stroke-width="0.561983" stroke-linejoin="round"/>
  <path d="M64.4651 36.1821H61.6814" stroke="#BC9434" stroke-width="0.561983" stroke-linejoin="round"/>
  <path d="M26.2034 36.1821H23.4197" stroke="#BC9434" stroke-width="0.561983" stroke-linejoin="round"/>
  <path d="M58.4547 21.6705L56.4856 23.6382" stroke="#BC9434" stroke-width="0.561983" stroke-linejoin="round"/>
  <path d="M31.3994 48.7245L29.4316 50.6936" stroke="#BC9434" stroke-width="0.561983" stroke-linejoin="round"/>
  <path d="M29.4316 21.6705L31.3994 23.6382" stroke="#BC9434" stroke-width="0.561983" stroke-linejoin="round"/>
  <path d="M56.4856 48.7245L58.4547 50.6936" stroke="#BC9434" stroke-width="0.561983" stroke-linejoin="round"/>
  <path d="M49.0081 34.2267L49.3287 35.45L28.3444 40.511L28.248 40.1436L49.0081 34.2267Z" fill="#BC9434" stroke="#BC9434" stroke-width="0.561983" stroke-linejoin="round"/>
  <path d="M44.7481 36.1917C44.7481 36.0325 44.7009 35.8769 44.6125 35.7445C44.524 35.6121 44.3983 35.5089 44.2512 35.448C44.1041 35.3871 43.9423 35.3711 43.7861 35.4022C43.63 35.4332 43.4865 35.5099 43.374 35.6225C43.2614 35.7351 43.1847 35.8785 43.1537 36.0346C43.1226 36.1908 43.1385 36.3527 43.1995 36.4997C43.2604 36.6468 43.3636 36.7726 43.4959 36.861C43.6283 36.9495 43.7839 36.9967 43.9432 36.9967C44.0489 36.9967 44.1535 36.9758 44.2512 36.9354C44.3489 36.8949 44.4376 36.8356 44.5124 36.7609C44.5871 36.6861 44.6464 36.5974 44.6869 36.4997C44.7273 36.4021 44.7481 36.2974 44.7481 36.1917Z" fill="white" stroke="#BC9434" stroke-width="0.561983" stroke-linejoin="round"/>
  <path d="M36.2113 51.449L34.9523 50.6234C34.9523 50.6234 34.1721 51.3788 34.1267 51.449C34.0813 51.5192 31.9374 51.7751 31.5122 51.7751C31.087 51.7751 30.7829 51.6747 30.732 51.877C30.6811 52.0792 31.3361 52.5306 32.2924 52.7824C32.6695 52.8815 33.2199 53.0796 33.762 53.2736L33.6767 53.4869C33.6767 53.4869 35.1105 54.0153 35.3376 54.0373C35.4146 54.047 35.4889 53.93 35.5536 53.7731C35.7779 53.5709 36.2113 51.449 36.2113 51.449Z" fill="#BC9434" stroke="#BC9434" stroke-width="0.561983" stroke-linejoin="round"/>
  <path d="M57.5315 40.6802L57.8342 42.1498C57.8342 42.1498 58.9199 42.1636 59.0093 42.1498C59.0988 42.1361 60.7982 43.4612 61.0968 43.7625C61.3954 44.0639 61.5426 44.3473 61.7215 44.24C61.9004 44.1327 61.7531 43.3511 61.2523 42.498C61.0541 42.1622 60.8023 41.6338 60.556 41.1137L60.7665 41.0229C60.7665 41.0229 60.1212 39.6372 59.9781 39.4597C59.9285 39.3992 59.7937 39.4294 59.6382 39.4941C59.33 39.4845 57.5315 40.6802 57.5315 40.6802Z" fill="#BC9434" stroke="#BC9434" stroke-width="0.561983" stroke-linejoin="round"/>
  <path d="M42.8356 36.7489C42.8356 36.7489 42.4324 37.0007 42.4834 37.1521C42.5343 37.3035 42.8604 37.5539 42.8604 37.5539C42.8604 37.5539 37.5407 42.1402 37.4402 42.4925C37.3398 42.8447 34.124 50.6179 34.124 50.6179L36.5899 51.8563L39.8813 44.0322L45.4776 40.4546C45.4776 40.4546 49.5231 46.2091 49.9263 46.1596C50.3294 46.11 58.6062 42.2544 58.6062 42.2544L57.7985 40.361L50.8055 42.7553L48.6218 37.8566C48.6218 37.8566 49.1502 36.9498 48.8241 36.0678C48.498 35.1858 47.5402 33.8276 47.5402 33.8276L42.8356 36.7489Z" fill="#BC9434" stroke="#BC9434" stroke-width="0.561983" stroke-linejoin="round"/>
  <path d="M45.4761 40.4477C45.4761 40.4477 48.1566 38.8433 48.3836 38.6162" stroke="#999999" stroke-width="0.561983" stroke-linejoin="round"/>
  <path d="M44.0134 36.7242C44.3228 36.4484 44.6521 36.1959 44.9987 35.9688C45.5271 35.6674 46.7352 35.717 46.7352 35.717" stroke="#999999" stroke-width="0.561983" stroke-linejoin="round"/>
  <path d="M43.1616 37.4783C43.1616 37.4783 43.3405 37.3132 43.5937 37.0889" stroke="#999999" stroke-width="0.561983" stroke-linejoin="round"/>
  <path d="M47.313 35.4404C47.313 35.4404 46.3071 35.3138 45.5242 35.516" stroke="#999999" stroke-width="0.561983" stroke-linejoin="round"/>
  <path d="M46.105 40.1959C46.105 40.1959 48.1938 40.5743 48.8735 40.5234" stroke="#999999" stroke-width="0.561983" stroke-linejoin="round"/>
  <path d="M48.645 41.8127C48.8074 41.8609 48.9684 41.9008 49.1253 41.9325" stroke="#999999" stroke-width="0.561983" stroke-linejoin="round"/>
  <path d="M46.0801 40.65C46.7568 41.0494 47.4667 41.3896 48.2019 41.6669" stroke="#999999" stroke-width="0.561983" stroke-linejoin="round"/>
  <path d="M42.4309 36.2963L42.8341 36.749L47.5401 33.8291L47.2374 33.5277L42.4309 36.2963Z" fill="#BC9434" stroke="#BC9434" stroke-width="0.561983" stroke-linejoin="round"/>
  <path d="M49.2766 30.4674L49.7087 31.0495L50.7655 30.6834L50.5494 30.1647L49.2766 30.4674Z" fill="white" stroke="#BC9434" stroke-width="0.561983" stroke-linejoin="round"/>
  <path d="M38.1569 26.2238C38.1569 26.2238 36.064 26.2541 34.9921 26.2238C33.9201 26.1935 30.9245 25.5963 30.6851 26.0449C30.4457 26.4935 30.9534 27.7195 32.4203 28.1984C33.8871 28.6772 37.0864 29.1258 37.0864 29.1258C37.0864 29.1258 38.4019 30.777 39.1504 31.7581C39.899 32.7393 41.2736 35.0193 41.3933 35.2285C41.513 35.4376 42.0511 36.7242 42.7693 36.4545C43.4876 36.1848 47.4052 33.763 47.4052 33.5828C47.4052 33.4025 47.4052 33.1699 47.2868 33.0145C47.1685 32.859 45.7608 31.1307 45.5214 30.6752C45.282 30.2198 44.4206 28.014 44.4206 28.014L46.3043 27.5654C46.3043 27.5654 48.5184 30.0175 48.9367 30.4069C49.355 30.7963 49.7141 30.6463 49.7141 30.6463C49.7141 30.6463 50.7021 30.4661 50.731 30.1675C50.7599 29.8689 47.4409 24.7831 47.1121 24.6042C46.7832 24.4253 44.5692 25.1725 43.672 25.3211C42.7748 25.4697 41.6974 25.5303 40.4411 25.8302C39.6892 26.0114 38.9261 26.1428 38.1569 26.2238Z" fill="white" stroke="#BC9434" stroke-width="0.561983" stroke-linejoin="round"/>
  <path d="M44.4055 28.0195L41.4141 28.8561" stroke="#BC9434" stroke-width="0.561983" stroke-linejoin="round"/>
  <path d="M43.0585 28.4075L42.0127 29.2455" stroke="#BC9434" stroke-width="0.561983" stroke-linejoin="round"/>
  <path d="M34.5354 27.9562L34.0854 27.7498" stroke="#BC9434" stroke-width="0.561983" stroke-linejoin="round"/>
  <path d="M34.9827 27.6906L37.077 29.1258L34.8616 28.1075" stroke="#BC9434" stroke-width="0.561983" stroke-linejoin="round"/>
  <path d="M42.116 32.3085C43.1686 32.5273 45.0056 32.8493 46.555 32.8149" stroke="#BC9434" stroke-width="0.561983" stroke-linejoin="round"/>
  <path d="M41.2532 32.1132C41.2532 32.1132 41.4334 32.1586 41.7403 32.2274" stroke="#BC9434" stroke-width="0.561983" stroke-linejoin="round"/>
  <path d="M44.502 32.3801C44.502 32.3801 45.7486 32.6388 46.5811 32.6388" stroke="#BC9434" stroke-width="0.561983" stroke-linejoin="round"/>
  <path d="M38.1184 27.8035L38.5711 29.3185L39.1601 27.7581L38.1184 27.8035Z" fill="#BC9434" stroke="#BC9434" stroke-width="0.561983" stroke-linejoin="round"/>
  <path d="M38.2547 26.6613L37.6575 27.3191L38.6867 28.1433L39.2633 27.114L38.2547 26.6613Z" fill="white" stroke="#BC9434" stroke-width="0.561983" stroke-linejoin="round"/>
  <path d="M37.6575 27.3191L37.9464 28.5341L38.3579 27.875L37.6575 27.3191Z" fill="white" stroke="#BC9434" stroke-width="0.561983" stroke-linejoin="round"/>
  <path d="M35.7435 22.009C35.7435 22.009 35.3307 23.0176 35.3527 23.2846C35.3747 23.5515 35.5797 23.7166 35.5591 24.0262C35.5384 24.3359 34.9 24.911 35.0445 25.0555C35.1889 25.2 35.7228 25.4257 35.7228 25.4257C35.7228 25.4257 36.2994 26.6201 36.5058 26.6641C36.7122 26.7081 37.8226 26.1495 37.8226 26.1495L38.6868 28.1447L40.3958 25.6142L39.8193 24.4817C39.8193 24.4817 40.3132 23.2061 39.8399 22.1562C39.3665 21.1063 37.8639 21.0444 37.1429 21.1683C36.4219 21.2921 35.888 21.5976 35.7435 22.009Z" fill="white" stroke="#BC9434" stroke-width="0.561983" stroke-miterlimit="10"/>
  <path d="M37.1236 21.7847C36.9563 21.7492 36.7831 21.7511 36.6166 21.7904C36.4501 21.8296 36.2943 21.9052 36.1604 22.0118C35.6471 22.3819 35.2137 22.7933 35.0087 22.4246C34.8036 22.0558 35.4407 21.4366 35.4407 21.4366C35.4407 21.4366 34.9261 21.2921 35.1325 20.6963C35.3389 20.1005 36.0957 19.9752 36.0957 20.1816C36.0957 20.388 36.0338 20.5518 36.6104 20.2642C37.1869 19.9766 37.4951 19.8927 37.619 20.2229C37.7428 20.5532 38.4831 20.3605 39.3266 20.8394C40.1701 21.3182 40.3765 21.6223 40.1908 22.6929C40.005 23.7634 39.9651 24.2767 39.8206 24.4817C39.6761 24.6867 39.1615 24.7487 38.9358 24.6675C38.7102 24.5863 38.8326 24.3579 38.8326 24.3579C38.8326 24.3579 39.4298 23.7607 39.1615 23.2873C38.8932 22.814 38.5038 23.0204 38.3799 23.2873C38.2561 23.5543 38.318 23.7813 38.1322 23.7813C37.9465 23.7813 37.7827 23.6437 37.7415 23.3492C37.7002 23.0548 37.5571 22.7988 37.4332 22.7521C37.3094 22.7053 37.0012 22.9791 37.0204 22.5057C37.0276 22.2327 37.1292 21.9706 37.308 21.7641L37.1236 21.7847Z" fill="#BC9434" stroke="#BC9434" stroke-width="0.561983" stroke-miterlimit="10"/>
  <path d="M35.7448 23.8199C35.7395 23.6888 35.7825 23.5603 35.8657 23.4588C35.949 23.3573 36.0665 23.2899 36.1962 23.2695" stroke="#BC9434" stroke-width="0.561983" stroke-miterlimit="10"/>
  <path d="M36.2307 24.0235C36.2706 24.135 36.2582 24.2423 36.2046 24.2615C36.1509 24.2808 36.0766 24.2038 36.0367 24.0909C35.9968 23.9781 36.0092 23.8721 36.0628 23.8529C36.1165 23.8336 36.1922 23.9107 36.2307 24.0235Z" fill="#BC9434"/>
  <path d="M40.3544 24.9523L38.5642 27.2365L38.8931 28.4516L40.9929 25.5289L40.3544 24.9523Z" fill="white" stroke="#BC9434" stroke-width="0.561983" stroke-linejoin="round"/>
  <path d="M38.5698 29.3185C38.601 29.4217 38.6595 29.5146 38.7392 29.5873C38.8189 29.66 38.9168 29.7098 39.0225 29.7313C39.3844 29.7987 40.0174 29.5276 40.3339 28.713C40.6504 27.8984 41.3067 25.6596 41.6906 25.1161C42.0746 24.5726 43.3419 24.5519 43.9982 24.5959C44.6546 24.64 45.1059 24.0084 45.7169 23.7139C46.0747 23.54 46.4556 23.4181 46.848 23.352L47.6186 21.7847L46.0127 21.7393C46.0127 21.7393 44.4289 22.4865 44.0216 22.9612C43.6143 23.436 43.3212 23.374 42.4612 23.5488C41.6012 23.7235 41.1278 24.0923 40.788 25.1326C40.4481 26.1729 39.9968 28.7969 39.4986 29.1588C39.3713 29.2644 39.2185 29.3346 39.0555 29.3626C38.8926 29.3907 38.7251 29.3754 38.5698 29.3185Z" fill="#BC9434" stroke="#BC9434" stroke-width="0.561983" stroke-linejoin="round"/>
  <path d="M33.0093 27.6136C33.1951 27.8076 33.2226 28.0828 33.0698 28.2314C32.9171 28.38 32.6405 28.3428 32.4548 28.1502C32.269 27.9576 32.2415 27.681 32.3942 27.5324C32.547 27.3838 32.8222 27.4264 33.0093 27.6136Z" fill="white" stroke="#BC9434" stroke-width="0.561983" stroke-linejoin="round"/>
  <path d="M32.8621 27.9892L32.5635 27.6727C32.5635 27.6727 31.9498 26.0738 31.1311 25.6458C30.3123 25.2179 29.3271 25.8688 29.1221 26.4825C28.917 27.0962 29.6436 28.1199 30.4059 28.4364C31.0181 28.6657 31.6463 28.8497 32.2855 28.9868C32.2855 28.9868 32.6392 28.1571 32.8621 27.9892Z" fill="white" stroke="#BC9434" stroke-width="0.561983" stroke-linejoin="round"/>
  <path d="M31.8011 28.8451L31.8327 28.8864C32.1011 28.9538 32.2855 28.9937 32.2855 28.9937C32.2855 28.9937 32.6391 28.1571 32.862 27.9892L32.5634 27.6727C32.5634 27.6727 31.7075 27.8213 31.8011 28.8451Z" fill="#BC9434" stroke="#BC9434" stroke-width="0.561983" stroke-linejoin="round"/>
  <path d="M34.7404 30.4633C34.8488 30.6191 34.9738 30.7626 35.1133 30.8913C35.2619 31.0041 35.3169 31.1334 35.1311 31.1156C34.9063 31.1102 34.6926 31.0162 34.5367 30.8541C34.3496 30.6505 34.2202 30.4826 34.2202 30.4826L34.7404 30.4633Z" fill="white" stroke="#BC9434" stroke-width="0.561983" stroke-linejoin="round"/>
  <path d="M34.8339 29.9033C34.8339 29.9033 35.094 30.3312 35.0018 30.4427C34.9096 30.5541 34.0524 30.5913 33.9216 30.5541C33.7909 30.517 33.8845 30.3491 33.8845 30.3491L34.8339 29.9033Z" fill="white" stroke="#BC9434" stroke-width="0.561983" stroke-linejoin="round"/>
  <path d="M34.8147 29.4037C34.8147 29.4037 35.0197 29.7202 34.9826 29.8496C34.9454 29.9789 34.0717 30.3711 33.8818 30.3518C33.6919 30.3326 33.7153 30.1853 33.7153 30.1853L34.8147 29.4037Z" fill="white" stroke="#BC9434" stroke-width="0.561983" stroke-linejoin="round"/>
  <path d="M34.4625 29.0309C34.4625 29.0309 34.7969 28.9937 34.8341 29.2359C34.8712 29.4781 34.6662 29.5524 34.5369 29.6638C34.4075 29.7753 33.8488 30.1853 33.7181 30.1853C33.5874 30.1853 33.3452 29.8124 33.3452 29.8124L34.4625 29.0309Z" fill="white" stroke="#BC9434" stroke-width="0.561983" stroke-linejoin="round"/>
  <path d="M32.862 27.9892C32.862 27.9892 33.7729 28.3249 34.2009 28.4364C34.6288 28.5479 34.6481 28.9015 34.4623 29.0308C34.2766 29.1602 33.6986 29.8688 33.5308 29.906C33.3629 29.9432 33.1179 29.7574 33.1179 29.7574C33.1179 29.7574 32.5964 29.4959 32.5221 29.2923C32.4768 29.169 32.3922 29.0641 32.2813 28.9937C32.2813 28.9937 32.229 28.2314 32.862 27.9892Z" fill="white" stroke="#BC9434" stroke-width="0.561983" stroke-linejoin="round"/>
  <path d="M33.1222 29.7574C33.1222 29.7574 32.9736 29.4038 33.1043 29.3102C33.2351 29.2166 33.4387 29.4217 33.4387 29.4217C33.4684 29.3139 33.5189 29.2129 33.5873 29.1245" stroke="#BC9434" stroke-width="0.561983" stroke-linejoin="round"/>
  <path d="M49.7156 31.0495C49.7648 31.3163 49.7957 31.5862 49.8078 31.8572C49.7927 32.0457 49.4638 32.8301 49.4473 32.8768C49.4308 32.9236 49.5574 33.1121 49.6041 33.1741C49.6509 33.236 49.8711 33.2057 50.0431 33.3461C50.2151 33.4864 50.4187 33.8332 50.6706 33.7589C50.9224 33.6846 51.0834 33.3461 51.0834 33.3461C51.0834 33.3461 51.6627 33.0021 51.6778 32.8301C51.6857 32.618 51.6592 32.4061 51.5994 32.2026C51.5526 32.065 50.7738 30.689 50.7738 30.689L49.7156 31.0495Z" fill="white" stroke="#BC9434" stroke-width="0.561983" stroke-linejoin="round"/>
  <path d="M49.8794 32.7351C49.8794 32.7351 50.1766 32.7819 50.3032 33.2374" stroke="#BC9434" stroke-width="0.561983" stroke-linejoin="round"/>
  <path d="M50.0363 32.9704L49.3621 33.3158L49.9895 34.4909" stroke="#BC9434" stroke-width="1.68595" stroke-linecap="round" stroke-linejoin="round"/>
  <path d="M51.6819 32.4063L51.869 32.3278L52.4965 33.5814" stroke="#BC9434" stroke-width="1.68595" stroke-linejoin="round"/>
  <path d="M54.8184 32.3234L48.0744 35.3331C47.8114 35.4505 47.6933 35.7589 47.8107 36.0219L49.6203 40.0768C49.7377 40.3399 50.0461 40.4579 50.3091 40.3406L57.0531 37.3309C57.3161 37.2135 57.4342 36.9051 57.3168 36.6421L55.5072 32.5871C55.3898 32.3241 55.0814 32.2061 54.8184 32.3234Z" fill="#BC9434" stroke="#BC9434" stroke-width="0.561983" stroke-linejoin="round"/>
</svg>